# xmcd CD database file
#
# Track frame offsets:
#	150
#	13415
#	27257
#	51172
#	65230
#	79510
#	97620
#	111970
#	129127
#	143300
#	158837
#	174680
#
# Disc length: 2590 seconds
#
# Revision: 0
# Processed by: cddbd v1.5.1PL2 Copyright (c) Steve Scherf et al.
# Submitted via: CDex 1.51
#
DISCID=920a1c0c
DTITLE=Happy Feet Brassband - Happy Feet
DYEAR=1996
DGENRE=Jazz
TTITLE0=Kid Jordan's Second Line
TTITLE1=Caravan
TTITLE2=Also Sprach Zarathustra
TTITLE3=Moonlight Fiësta
TTITLE4=Big Chief
TTITLE5=Old Rugged Cross
TTITLE6=We shall Walk To The Streets
TTITLE7=Watermelon Man
TTITLE8=Shake It And Break It
TTITLE9=St'Thomas
TTITLE10=Obstinate Tuba
TTITLE11=It Ain't My Fault
EXTD=YEAR: 1996
EXTT0=
EXTT1=
EXTT2=
EXTT3=
EXTT4=
EXTT5=
EXTT6=
EXTT7=
EXTT8=
EXTT9=
EXTT10=
EXTT11=
PLAYORDER=
